HIERARCHY
ROOT hip
{
  OFFSET 0 0 0
  CHANNELS 6 Xposition Yposition Zposition Zrotation Yrotation Xrotation
  JOINT abdomen
  {
    OFFSET 0 20.6881 -0.73152
    CHANNELS 3 Zrotation Xrotation Yrotation
    JOINT chest
    {
      OFFSET 0 11.7043 -0.48768
      CHANNELS 3 Zrotation Xrotation Yrotation
      JOINT neck
      {
        OFFSET 0 22.1894 -2.19456
        CHANNELS 3 Zrotation Xrotation Yrotation
        JOINT head
        {
          OFFSET -0.24384 7.07133 1.2192
          CHANNELS 3 Zrotation Xrotation Yrotation
          JOINT leftEye
          {
            OFFSET 4.14528 8.04674 8.04672
            CHANNELS 3 Zrotation Xrotation Yrotation
            End Site
            {
              OFFSET 1 0 0
            }
          }
          JOINT rightEye
          {
            OFFSET -3.6576 8.04674 8.04672
            CHANNELS 3 Zrotation Xrotation Yrotation
            End Site
            {
              OFFSET 1 0 0
            }
          }
        }
      }
      JOINT rCollar
      {
        OFFSET -2.68224 19.2634 -4.8768
        CHANNELS 3 Zrotation Xrotation Yrotation
        JOINT rShldr
        {
          OFFSET -8.77824 -1.95073 1.46304
          CHANNELS 3 Zrotation Xrotation Yrotation
          JOINT rForeArm
          {
            OFFSET -28.1742 -1.7115 0.48768
            CHANNELS 3 Zrotation Xrotation Yrotation
            JOINT rHand
            {
              OFFSET -22.5879 0.773209 7.07136
              CHANNELS 3 Zrotation Xrotation Yrotation
              JOINT rThumb1
              {
                OFFSET -1.2192 -0.487915 3.41376
                CHANNELS 3 Zrotation Xrotation Yrotation
                JOINT rThumb2
                {
                  OFFSET -3.37035 -0.52449 3.41376
                  CHANNELS 3 Zrotation Xrotation Yrotation
                  End Site
                  {
                    OFFSET -1.78271 -1.18214 1.43049
                  }
                }
              }
              JOINT rIndex1
              {
                OFFSET -7.75947 0.938293 5.60832
                CHANNELS 3 Zrotation Xrotation Yrotation
                JOINT rIndex2
                {
                  OFFSET -2.54057 -0.884171 1.56538
                  CHANNELS 3 Zrotation Xrotation Yrotation
                  End Site
                  {
                    OFFSET -1.62519 -0.234802 1.16502
                  }
                }
              }
              JOINT rMid1
              {
                OFFSET -8.24714 1.18213 3.41376
                CHANNELS 3 Zrotation Xrotation Yrotation
                JOINT rMid2
                {
                  OFFSET -3.10165 -0.590103 1.0647
                  CHANNELS 3 Zrotation Xrotation Yrotation
                  End Site
                  {
                    OFFSET -2.48547 -0.328903 0.83742
                  }
                }
              }
              JOINT rRing1
              {
                OFFSET -8.82822 0.546677 1.51678
                CHANNELS 3 Zrotation Xrotation Yrotation
                JOINT rRing2
                {
                  OFFSET -2.60934 -0.819778 -0.0198488
                  CHANNELS 3 Zrotation Xrotation Yrotation
                  End Site
                  {
                    OFFSET -2.33842 -0.294052 0.168128
                  }
                }
              }
              JOINT rPinky1
              {
                OFFSET -8.27202 -0.0477905 -0.4584
                CHANNELS 3 Zrotation Xrotation Yrotation
                JOINT rPinky2
                {
                  OFFSET -1.82734 -0.647385 -0.700984
                  CHANNELS 3 Zrotation Xrotation Yrotation
                  End Site
                  {
                    OFFSET -1.69225 -0.51767 -0.607171
                  }
                }
              }
            }
          }
        }
      }
      JOINT lCollar
      {
        OFFSET 2.68224 19.2634 -4.8768
        CHANNELS 3 Zrotation Xrotation Yrotation
        JOINT lShldr
        {
          OFFSET 8.77824 -1.95073 1.46304
          CHANNELS 3 Zrotation Xrotation Yrotation
          JOINT lForeArm
          {
            OFFSET 28.1742 -1.7115 0.48768
            CHANNELS 3 Zrotation Xrotation Yrotation
            JOINT lHand
            {
              OFFSET 22.5879 0.773209 7.07136
              CHANNELS 3 Zrotation Xrotation Yrotation
              JOINT lThumb1
              {
                OFFSET 1.2192 -0.487915 3.41376
                CHANNELS 3 Zrotation Xrotation Yrotation
                JOINT lThumb2
                {
                  OFFSET 3.37035 -0.52449 3.41376
                  CHANNELS 3 Zrotation Xrotation Yrotation
                  End Site
                  {
                    OFFSET 1.78271 -1.18214 1.43049
                  }
                }
              }
              JOINT lIndex1
              {
                OFFSET 7.75947 0.938293 5.60832
                CHANNELS 3 Zrotation Xrotation Yrotation
                JOINT lIndex2
                {
                  OFFSET 2.54057 -0.884171 1.56538
                  CHANNELS 3 Zrotation Xrotation Yrotation
                  End Site
                  {
                    OFFSET 1.62519 -0.234802 1.16502
                  }
                }
              }
              JOINT lMid1
              {
                OFFSET 8.24714 1.18213 3.41376
                CHANNELS 3 Zrotation Xrotation Yrotation
                JOINT lMid2
                {
                  OFFSET 3.10165 -0.590103 1.0647
                  CHANNELS 3 Zrotation Xrotation Yrotation
                  End Site
                  {
                    OFFSET 2.48547 -0.328903 0.83742
                  }
                }
              }
              JOINT lRing1
              {
                OFFSET 8.82822 0.546677 1.51678
                CHANNELS 3 Zrotation Xrotation Yrotation
                JOINT lRing2
                {
                  OFFSET 2.60934 -0.819778 -0.0198488
                  CHANNELS 3 Zrotation Xrotation Yrotation
                  End Site
                  {
                    OFFSET 2.33842 -0.294052 0.168128
                  }
                }
              }
              JOINT lPinky1
              {
                OFFSET 8.27202 -0.0477905 -0.4584
                CHANNELS 3 Zrotation Xrotation Yrotation
                JOINT lPinky2
                {
                  OFFSET 1.82734 -0.647385 -0.700984
                  CHANNELS 3 Zrotation Xrotation Yrotation
                  End Site
                  {
                    OFFSET 1.69225 -0.51767 -0.607171
                  }
                }
              }
            }
          }
        }
      }
    }
  }
  JOINT rButtock
  {
    OFFSET -8.77824 4.35084 1.2192
    CHANNELS 3 Zrotation Xrotation Yrotation
    JOINT rThigh
    {
      OFFSET 0 -1.70687 -2.19456
      CHANNELS 3 Zrotation Xrotation Yrotation
      JOINT rShin
      {
        OFFSET 0 -36.8199 0.73152
        CHANNELS 3 Zrotation Xrotation Yrotation
        JOINT rFoot
        {
          OFFSET 0.73152 -45.1104 -5.12064
          CHANNELS 3 Zrotation Xrotation Yrotation
          End Site
          {
            OFFSET -1.1221 -3.69964 12.103
          }
        }
      }
    }
  }
  JOINT lButtock
  {
    OFFSET 8.77824 4.35084 1.2192
    CHANNELS 3 Zrotation Xrotation Yrotation
    JOINT lThigh
    {
      OFFSET 0 -1.70687 -2.19456
      CHANNELS 3 Zrotation Xrotation Yrotation
      JOINT lShin
      {
        OFFSET 0 -36.8199 0.73152
        CHANNELS 3 Zrotation Xrotation Yrotation
        JOINT lFoot
        {
          OFFSET -0.73152 -45.1104 -5.12064
          CHANNELS 3 Zrotation Xrotation Yrotation
          End Site
          {
            OFFSET 1.1221 -3.69964 12.103
          }
        }
      }
    }
  }
}
MOTION
Frames:	4
Frame Time:	0.03333
0.14249455475512657 60.74077666627502 11.670545225499932 -11.436783790588379 -27.768247604370117 9.986648559570312 8.652033805847168 11.558191299438477 11.318534851074219 -0.4491027891635895 -7.203399181365967 3.315314292907715 -3.907508373260498 12.71553897857666 -2.398073673248291 6.554086208343506 -20.11467170715332 -3.0886614322662354 0.4223977029323578 -0.1295471340417862 0.008618481457233429 -0.13537751138210297 0.2486674040555954 0.30985602736473083 -0.45769235491752625 0.547665536403656 0.5011389255523682 65.82591247558594 42.35939025878906 1.6154749393463135 -20.46088409423828 -14.16667652130127 38.29764938354492 -0.08264030516147614 10.258459091186523 1.4952912330627441 -0.1509738564491272 0.054970256984233856 0.0015182722127065063 0.03661895915865898 -0.08187180757522583 0.0033678493928164244 -0.3260122537612915 0.40871861577033997 0.321345716714859 7.39085054397583 5.511299133300781 -0.07016678899526596 -0.0028965987730771303 0.573971152305603 -0.6589940786361694 3.235781669616699 0.7687734365463257 0.012363817542791367 0.05044892802834511 -0.10507834702730179 0.23447972536087036 10.75586986541748 0.792769730091095 0.299809992313385 0.024096345528960228 -0.6228278279304504 -0.05391887202858925 2.4713127613067627 -0.8206379413604736 -0.4585202634334564 -0.027226798236370087 0.6234636902809143 -0.004613687749952078 -69.2592544555664 20.57427978515625 -9.86378002166748 12.760706901550293 -5.649886131286621 -22.59958267211914 0.9298222661018372 17.321514129638672 -2.267392873764038 -0.0351242795586586 -0.2660920023918152 0.13415807485580444 -0.26819849014282227 0.1615014523267746 0.016190260648727417 -0.3068270683288574 0.4413298964500427 -0.2480509877204895 -8.047780990600586 5.1261067390441895 -0.24122074246406555 0.06332020461559296 -0.13588175177574158 -0.7771541476249695 -3.0915699005126953 1.0389872789382935 -0.13261820375919342 -0.1391913741827011 0.038788799196481705 -0.10747132450342178 -10.403328895568848 0.5340667963027954 0.14141610264778137 -0.3155795633792877 0.5060421228408813 -0.23385284841060638 -1.8531131744384766 -0.5567605495452881 0.3980770409107208 -0.1458723545074463 -0.11471710354089737 0.24050985276699066 -6.914877414703369 11.870843887329102 -2.0430595874786377 0.42579591274261475 32.57280731201172 2.175907611846924 -10.68178653717041 -14.694584846496582 -30.972572326660156 0.15476377308368683 -0.09724783897399902 -0.058559902012348175 65.8605728149414 -52.77192306518555 61.550132751464844 3.1073365211486816 77.6461410522461 -4.044029712677002 2.929965019226074 -8.674005508422852 6.76044225692749
0.23733151793734206 60.890904224231896 12.015209004097498 -11.6786470413208 -27.77495002746582 10.161986351013184 8.826780319213867 11.574300765991211 11.355677604675293 -0.48524752259254456 -7.194240093231201 3.337467670440674 -3.869154930114746 12.709015846252441 -2.3832271099090576 6.532571315765381 -20.350791931152344 -3.0224013328552246 0.4574907720088959 -0.1292579174041748 0.023621080443263054 -0.17295880615711212 0.2328656166791916 0.32881250977516174 -0.46126118302345276 0.5516995787620544 0.49702757596969604 65.48981475830078 42.41522216796875 2.03495454788208 -20.472131729125977 -14.222304344177246 38.408695220947266 -0.10081858932971954 10.365849494934082 1.5006749629974365 -0.14550089836120605 0.05316649377346039 0.017394348978996277 0.03298602253198624 -0.09672476351261139 0.02653200924396515 -0.3112037181854248 0.40404099225997925 0.3259429931640625 7.386731147766113 5.513791084289551 -0.05017765983939171 0.013919544406235218 0.5616209506988525 -0.6569972634315491 3.230316638946533 0.7673643231391907 0.019572075456380844 0.056188251823186874 -0.10828360915184021 0.2537144720554352 10.758378982543945 0.7847088575363159 0.2974063456058502 0.0149109261110425 -0.6058605909347534 -0.053809888660907745 2.496732234954834 -0.8325097560882568 -0.45270010828971863 -0.04780159890651703 0.6254920959472656 0.013626300729811192 -69.25302124023438 20.74578094482422 -9.94805908203125 12.824583053588867 -5.724631309509277 -22.65372085571289 0.870274543762207 16.933425903320312 -2.2016427516937256 -0.0441555492579937 -0.28766298294067383 0.16762471199035645 -0.29635199904441833 0.18143190443515778 0.027919700369238853 -0.329935759305954 0.4438616633415222 -0.2765803039073944 -8.042349815368652 5.103154182434082 -0.24905918538570404 0.08488750457763672 -0.17224346101284027 -0.7673265933990479 -3.0905282497406006 1.0419557094573975 -0.13159921765327454 -0.13236123323440552 0.04774639382958412 -0.11075017601251602 -10.40803050994873 0.5376924872398376 0.12627334892749786 -0.2942153811454773 0.5142068862915039 -0.23005206882953644 -1.8439208269119263 -0.5610558390617371 0.3715744614601135 -0.14385558664798737 -0.09976287931203842 0.26270294189453125 -6.59311580657959 12.315316200256348 -2.0005669593811035 0.4503970742225647 32.104862213134766 2.1757829189300537 -10.551655769348145 -14.285751342773438 -30.902759552001953 0.1526937633752823 -0.08676876872777939 -0.055038921535015106 66.1451644897461 -53.10945129394531 61.910400390625 3.1701626777648926 77.71631622314453 -4.124077320098877 3.0574681758880615 -8.769210815429688 7.29133415222168
0.3385775997994096 60.41900645447571 12.38607664336326 -11.405105590820312 -27.608591079711914 10.555438041687012 8.492424964904785 11.641468048095703 11.452914237976074 -0.47221481800079346 -7.299689292907715 3.3580405712127686 -3.8347883224487305 12.712477684020996 -2.2809789180755615 6.499150276184082 -20.658676147460938 -2.8755581378936768 0.46320661902427673 -0.10882142931222916 0.033093858510255814 -0.19988258183002472 0.19018051028251648 0.3441132605075836 -0.4958021342754364 0.5560498833656311 0.46216076612472534 64.78862762451172 42.70323944091797 2.993765115737915 -20.517772674560547 -14.271800994873047 38.47978210449219 -0.10150571167469025 10.699036598205566 1.589382290840149 -0.12956254184246063 0.04247164726257324 0.013845356181263924 0.023756790906190872 -0.10764605551958084 0.015201854519546032 -0.29213061928749084 0.39271196722984314 0.3091397285461426 7.423152446746826 5.539088249206543 -0.061677105724811554 0.03342954069375992 0.4963444471359253 -0.6359971165657043 3.2341949939727783 0.8011763691902161 0.01883113570511341 0.06419968605041504 -0.06889166682958603 0.27534157037734985 10.754518508911133 0.7662131786346436 0.32606807351112366 0.012889730744063854 -0.6069564819335938 -0.04469141736626625 2.4845643043518066 -0.8387289047241211 -0.4662649631500244 -0.05390205979347229 0.6270869970321655 0.0037168755661696196 -69.2088851928711 20.8861083984375 -9.883852005004883 12.916916847229004 -5.772558212280273 -22.81937599182129 0.8357900381088257 16.44934844970703 -2.137129783630371 -0.05173029378056526 -0.3119775652885437 0.17927604913711548 -0.26831045746803284 0.17822733521461487 0.05342743918299675 -0.3764834702014923 0.4418284296989441 -0.311141699552536 -8.033424377441406 5.084725856781006 -0.22397027909755707 0.1233966201543808 -0.19248226284980774 -0.76524418592453 -3.0808088779449463 1.0688234567642212 -0.13595306873321533 -0.14271365106105804 0.030251801013946533 -0.07396908849477768 -10.414972305297852 0.5230444073677063 0.12730027735233307 -0.2805655002593994 0.5099955797195435 -0.22349177300930023 -1.8398722410202026 -0.6027311086654663 0.37449517846107483 -0.13928072154521942 -0.09549923986196518 0.2601040005683899 -6.749208450317383 11.827326774597168 -1.8062444925308228 0.4119253158569336 32.86982727050781 2.1618127822875977 -10.270869255065918 -14.004785537719727 -30.401470184326172 0.1621616631746292 -0.10155757516622543 -0.07915514707565308 65.70053100585938 -53.20578384399414 61.89288330078125 3.23571515083313 77.83259582519531 -4.236050605773926 3.3121836185455322 -9.176960945129395 8.14914321899414
0.4322697592437075 60.340705165830684 12.789368284516557 -10.793560981750488 -27.26879119873047 10.988007545471191 7.771088600158691 11.774212837219238 11.567501068115234 -0.41896679997444153 -7.438788414001465 3.3933427333831787 -3.761566638946533 12.732342720031738 -2.057447910308838 6.428215026855469 -20.98000144958496 -2.5333564281463623 0.43085262179374695 -0.10532858222723007 0.023363230749964714 -0.2016472965478897 0.18397043645381927 0.3286075294017792 -0.4953523278236389 0.5299540758132935 0.441671222448349 63.87332534790039 43.337867736816406 4.190343856811523 -20.684070587158203 -14.407164573669434 39.009193420410156 -0.14540572464466095 10.735295295715332 1.6437686681747437 -0.12123998999595642 0.016909310594201088 -0.027077695354819298 0.005503581836819649 -0.1265752762556076 -0.046513549983501434 -0.30593225359916687 0.35915645956993103 0.29464778304100037 7.4874162673950195 5.561585903167725 -0.0826767235994339 0.03140566498041153 0.4578390121459961 -0.6195124387741089 3.227679967880249 0.850235104560852 0.019107356667518616 0.0624191053211689 -0.03295022249221802 0.2534697651863098 10.728898048400879 0.7807373404502869 0.3567378520965576 0.011303477920591831 -0.6020001173019409 -0.03973805531859398 2.4458813667297363 -0.840362012386322 -0.4860391616821289 -0.039523329585790634 0.6267945766448975 0.001606129459105432 -68.96279907226562 20.9838924407959 -10.075431823730469 13.069674491882324 -5.8018999099731445 -23.230981826782227 0.8290418982505798 16.016386032104492 -2.0755767822265625 -0.05770639702677727 -0.30443477630615234 0.13471651077270508 -0.22373326122760773 0.13497433066368103 0.09383548051118851 -0.39306843280792236 0.40824633836746216 -0.3251737654209137 -8.031241416931152 5.080203056335449 -0.20623649656772614 0.15224005281925201 -0.21802909672260284 -0.7576009035110474 -3.0604445934295654 1.0915542840957642 -0.15251466631889343 -0.15431039035320282 0.008294138126075268 -0.065608449280262 -10.426642417907715 0.5067309141159058 0.13283923268318176 -0.2544666528701782 0.4992711544036865 -0.21878217160701752 -1.8343002796173096 -0.6528756022453308 0.3700310289859772 -0.13071733713150024 -0.10651709884405136 0.2686419188976288 -7.338949203491211 10.526715278625488 -1.6106370687484741 0.33363083004951477 34.64967727661133 2.1798574924468994 -9.976205825805664 -13.874300956726074 -29.646238327026367 0.13983693718910217 -0.12983320653438568 -0.10733886063098907 64.85907745361328 -53.18340301513672 61.56020736694336 3.4298064708709717 77.98670959472656 -4.475342750549316 3.6198537349700928 -9.67148208618164 9.072982788085938
